<?xml version="1.0" encoding="UTF-8"?><svg id="a" xmlns="http://www.w3.org/2000/svg" width="112" height="71" viewBox="0 0 112 71"><g id="b"><path d="M6.5,66.76c2.47-6.61,14.1-1.99,19.64-1.68,12.59.71,13.11-3.4,17.13-13.69,3.35-8.57,11.71-29,13.01-37,.75-4.56-2.74-5.43-6.76-5.83-7.35-.75-15.14,1.99-22.35.61-1.03-.2-2.72-.33-2.29-1.84,1.49-3.02,15.51-.46,18.75-.39,18.55.4,55.17-5.91,61.89,17.39,5.92,20.56-16.25,42.43-35.95,42.43H6.5ZM68.43,8.69l-18.9,54.02c.3.95.76,1.92,1.8,2.26,1.92.64,14.62.33,17.2-.07,14.23-2.21,23.54-16.17,26.73-29.09,5.47-22.16-5.69-29.12-26.83-27.12Z" fill="#26313d"/></g></svg>