<?xml version="1.0" encoding="UTF-8"?><svg id="Layer_2" xmlns="http://www.w3.org/2000/svg" width="1110.55" height="272.26" viewBox="0 0 1110.55 272.26"><defs><style>.cls-1{fill:#26313d;}</style></defs><g id="Layer_1-2"><path class="cls-1" d="M841.77,3.02l16.53,142.49L990.37,4.28c34.82.22,77.43-4.6,111.48-1.38,12.38,1.17,9.12,8.96,4.92,9.89-20.8,4.57-61.22-11.01-82.12,2.26-11.15,7.08-28.34,54.66-34.38,68.84-3.98,9.34-30.71,72.58-28.83,76.25,11.61,16.32,74.98-5.71,80.74,2.67l.43,9.27h-184.31c-.97-4.19,1.19-4.89,4.71-6.69,15.24-7.82,48.19,8.81,62.56-7.89l56.48-135.15-116.84,128.03c-21.89,22.3-30.88,12.87-36.47-11.53-7.77-33.97-7.45-71.84-14.56-105.6-.82-3.93,1.85-4.2-5.37-3.66l-48.87,124.02c11.3,22.13,44.03,8.09,65.35,11.23l-.02,7.23h-163.67l-4.11-6c2.3-9.32,47.18,1.22,56.37,1.15,24.65-.18,34.5-10.81,43.99-29,9.99-19.15,38.28-84.46,42.02-103.17,5.82-29.2-17.59-28.19-44.87-27.32-14.92.47-44.05,11.56-48-4.72h134.79,0Z"/><path class="cls-1" d="M0,176.91c8.13-19.2,46.44-5.78,64.68-4.87,41.46,2.06,43.18-9.87,56.41-39.76,11.03-24.91,38.56-84.26,42.86-107.49,2.46-13.25-9.04-15.76-22.27-16.95-24.22-2.17-49.86,5.77-73.6,1.78-3.38-.57-8.97-.97-7.53-5.35,4.91-8.77,51.09-1.34,61.75-1.14,61.08,1.16,181.69-17.17,203.8,50.52,19.51,59.74-53.51,123.27-118.4,123.27H0ZM203.95,8.19l-62.24,156.94c.97,2.77,2.51,5.57,5.92,6.57,6.33,1.85,48.13.97,56.65-.19,46.87-6.41,77.51-46.97,88.03-84.52C310.33,22.6,273.57,2.39,203.95,8.19Z"/><path class="cls-1" d="M649.21,3.02c.87,3.93-1.15,5.02-4.47,6.94-16.03,9.26-62.02-7.8-86.3,1.51-10.28,3.94-16.04,14.29-20.6,22.97-20.04,38.19-31.86,85.66-50.39,125.06-2.6,7.86,4.64,12.79,12.79,13.7,9.83,1.1,51.62.07,62.39-1.07,17.52-1.85,29.39-15,37.53-27.43,13.56-20.72,19.02-49.39,30.45-67.46,1.91-3.02,4.3-6.88,8.94-6.59,6.87,1.19,1.3,13.39-.05,16.82-8.18,20.7-28.05,39.76-33.03,62.74-1.96,9.02.43,15.05-1.13,23.02-5.66,2.62-11.62,3.3-17.9,3.77-63.99,4.71-138.19-1.62-203.79-.19-12.36.27-23.85,5.73-37.01.08-.92-3.91,1.14-5.02,4.44-6.93,28.7-16.57,82.44,31.31,110.43-26.22,17.56-36.1,27.24-77.96,46.2-114,7.07-29.26-22.74-19.59-41.31-19.37-12.05.14-46.07,4.39-48.26-7.34h231.07,0Z"/></g><path class="cls-1" d="M312.51,245.89c-1.62,8.53-8.84,13.69-19.77,13.69-14.98,0-21.65-10.92-21.65-21.37s6.68-21.37,21.65-21.37c10.79,0,18.01,4.9,19.77,13.69l-9.98,1.07c-1.01-4.32-3.44-8.21-9.78-8.21-9.04,0-10.86,9.48-10.86,14.81s1.82,14.81,10.86,14.81c6.27,0,8.77-3.89,9.78-8.15l9.98,1.01Z"/><path class="cls-1" d="M351.44,224.52h-22.13v9.91h18.35v7.03h-18.35v10.44h23.41v7.03h-33.93v-41.46h32.65v7.03Z"/><path class="cls-1" d="M379.98,217.49c12.08,0,16.8,6.82,16.8,12.1,0,4.53-3.58,8.74-8.9,10.44l10.46,18.92h-11.06l-9.44-17.21h-8.03v17.21h-10.52v-41.46h20.71ZM374.38,234.7c4.59,0,11.6.21,11.6-4.96,0-5.7-7.08-5.22-12.28-5.22h-3.91v10.18h4.59Z"/><path class="cls-1" d="M443.39,258.94h-10.73l-3.44-10.39h-15.52l-3.44,10.39h-10.73l14.71-41.46h14.17l14.98,41.46ZM421.6,224.63h-.27l-5.53,17.37h11.33l-5.53-17.37Z"/><path class="cls-1" d="M479.42,217.49h17.27v41.46h-10.52v-33.04h-.13l-9.71,33.04h-9.44l-9.71-33.04h-.13v33.04h-10.52v-41.46h17.27l7.76,29.73h.14l7.76-29.73Z"/><path class="cls-1" d="M503.98,258.94v-41.46h10.52v41.46h-10.52Z"/><path class="cls-1" d="M562.19,245.89c-1.62,8.53-8.84,13.69-19.77,13.69-14.98,0-21.65-10.92-21.65-21.37s6.68-21.37,21.65-21.37c10.79,0,18.01,4.9,19.77,13.69l-9.98,1.07c-1.01-4.32-3.44-8.21-9.78-8.21-9.04,0-10.86,9.48-10.86,14.81s1.82,14.81,10.86,14.81c6.27,0,8.77-3.89,9.78-8.15l9.98,1.01Z"/><path class="cls-1" d="M613.94,229.69c-1.01-2.88-3.04-5.81-7.29-5.81-3.44,0-6.41,1.97-6.41,4.79,0,8.15,24.69,2.82,24.69,18.28,0,5.06-4.86,12.63-17.81,12.63-9.98,0-17.2-3.84-18.82-11.94l10.52-1.23c.94,3.52,3.24,6.13,8.23,6.13,4.11,0,7.55-1.71,7.55-5.27,0-8.31-24.69-3.52-24.69-17.64,0-7.46,7.96-12.79,17.07-12.79s15.58,4.53,16.46,11.51l-9.51,1.33Z"/><path class="cls-1" d="M665.75,224.52h-13.63v34.42h-10.52v-34.42h-13.63v-7.03h37.78v7.03Z"/><path class="cls-1" d="M706.57,217.49v28.67c0,8.53-7.42,13.43-18.48,13.43s-18.48-4.9-18.48-13.43v-28.67h10.52v26c0,6.93,2.63,9.06,7.96,9.06s7.96-2.13,7.96-9.06v-26h10.52Z"/><path class="cls-1" d="M726.33,217.49c19.97,0,27.05,8.95,27.05,20.73s-7.76,20.73-23.41,20.73h-16.46v-41.46h12.82ZM729.17,251.91c8.37,0,13.42-4.16,13.42-14.65,0-8.69-4.72-12.73-14.57-12.73h-3.98v27.39h5.13Z"/><path class="cls-1" d="M759.66,258.94v-41.46h10.52v41.46h-10.52Z"/><path class="cls-1" d="M819.77,238.22c0,10.44-6.68,21.37-21.65,21.37s-21.65-10.92-21.65-21.37,6.68-21.37,21.65-21.37,21.65,10.92,21.65,21.37ZM787.25,238.22c0,5.33,1.82,14.81,10.86,14.81s10.86-9.49,10.86-14.81-1.82-14.81-10.86-14.81-10.86,9.48-10.86,14.81Z"/></svg>