<?xml version="1.0" encoding="UTF-8"?>
<svg id="Layer_2" data-name="Layer 2" xmlns="http://www.w3.org/2000/svg" viewBox="0 0 1174.86 214.8">
  <g id="Layer_1-2" data-name="Layer 1">
    <g>
      <path d="M890.51,3.62l17.49,170.57L1047.72,5.13c36.84.26,81.91-5.51,117.94-1.65,13.1,1.4,9.65,10.73,5.2,11.84-22,5.47-64.76-13.18-86.88,2.7-11.8,8.47-29.98,65.43-36.37,82.4-4.21,11.18-32.49,86.88-30.5,91.27,12.28,19.53,79.32-6.84,85.41,3.2l.46,11.1h-194.98c-1.03-5.02,1.26-5.85,4.98-8.01,16.12-9.36,50.98,10.54,66.18-9.44l59.75-161.78-123.61,153.26c-23.16,26.69-32.67,15.4-38.58-13.8-8.22-40.66-7.88-86-15.4-126.41-.87-4.7,1.96-5.03-5.68-4.38l-51.7,148.46c11.95,26.49,46.58,9.68,69.13,13.44l-.02,8.66h-173.15l-4.35-7.18c2.43-11.16,49.91,1.46,59.63,1.38,26.08-.21,36.5-12.94,46.54-34.71,10.57-22.92,40.5-101.1,44.45-123.5,6.16-34.95-18.61-33.74-47.47-32.7-15.78.56-46.6,13.84-50.78-5.65h142.6Z"/>
      <path d="M0,211.78c8.6-22.98,49.13-6.92,68.42-5.83,43.86,2.47,45.68-11.82,59.68-47.6,11.67-29.82,40.79-100.86,45.34-128.67,2.6-15.86-9.56-18.87-23.56-20.29-25.62-2.6-52.75,6.91-77.86,2.13-3.58-.68-9.49-1.16-7.97-6.4,5.19-10.5,54.05-1.61,65.33-1.37,64.62,1.39,192.21-20.55,215.6,60.47,20.64,71.51-56.61,147.56-125.26,147.56H0ZM215.76,9.81l-65.84,187.86c1.03,3.31,2.66,6.67,6.26,7.87,6.7,2.22,50.92,1.16,59.93-.23,49.58-7.67,82-56.22,93.13-101.18C328.3,27.06,289.41,2.87,215.76,9.81Z"/>
      <path d="M686.8,3.62c.92,4.71-1.22,6.01-4.73,8.31-16.96,11.09-65.61-9.34-91.3,1.81-10.87,4.72-16.97,17.11-21.79,27.5-21.2,45.72-33.71,102.54-53.31,149.7-2.75,9.41,4.91,15.31,13.53,16.4,10.4,1.32,54.61.08,66-1.28,18.53-2.21,31.09-17.95,39.7-32.83,14.35-24.8,20.12-59.12,32.21-80.75,2.02-3.62,4.55-8.24,9.46-7.89,7.27,1.42,1.38,16.03-.05,20.14-8.65,24.78-29.67,47.59-34.94,75.1-2.07,10.8.45,18.01-1.2,27.55-5.99,3.14-12.29,3.95-18.94,4.51-67.69,5.64-146.19-1.94-215.59-.23-13.08.32-25.23,6.86-39.15.09-.97-4.68,1.21-6.01,4.7-8.3,30.36-19.83,87.21,37.48,116.82-31.39,18.58-43.21,28.82-93.32,48.88-136.46,7.48-35.02-24.06-23.45-43.7-23.19-12.75.17-48.74,5.26-51.05-8.79h244.45Z"/>
    </g>
  </g>
</svg>