<svg width="381" height="311" viewBox="0 0 381 311" fill="none" xmlns="http://www.w3.org/2000/svg">
<g opacity="0.05">
<path d="M40.8444 83.1145C52.3302 83.1145 61.6414 74.5795 61.6414 64.0511C61.6414 53.5227 52.3302 44.9878 40.8444 44.9878C29.3585 44.9878 20.0473 53.5227 20.0473 64.0511C20.0473 74.5795 29.3585 83.1145 40.8444 83.1145Z" fill="#26313D"/>
<path d="M119.594 83.1145C131.08 83.1145 140.391 74.5795 140.391 64.0511C140.391 53.5227 131.08 44.9878 119.594 44.9878C108.108 44.9878 98.7966 53.5227 98.7966 64.0511C98.7966 74.5795 108.108 83.1145 119.594 83.1145Z" fill="#26313D"/>
<path d="M197.092 83.1145C208.578 83.1145 217.89 74.5795 217.89 64.0511C217.89 53.5227 208.578 44.9878 197.092 44.9878C185.607 44.9878 176.295 53.5227 176.295 64.0511C176.295 74.5795 185.607 83.1145 197.092 83.1145Z" fill="#26313D"/>
<path d="M271.368 83.1145C282.854 83.1145 292.165 74.5795 292.165 64.0511C292.165 53.5227 282.854 44.9878 271.368 44.9878C259.882 44.9878 250.571 53.5227 250.571 64.0511C250.571 74.5795 259.882 83.1145 271.368 83.1145Z" fill="#26313D"/>
<path d="M339.167 83.1145C350.653 83.1145 359.964 74.5795 359.964 64.0511C359.964 53.5227 350.653 44.9878 339.167 44.9878C327.681 44.9878 318.37 53.5227 318.37 64.0511C318.37 74.5795 327.681 83.1145 339.167 83.1145Z" fill="#26313D"/>
<path d="M59.4429 31.0864C69.0513 31.0864 76.8405 24.1275 76.8405 15.5432C76.8405 6.95892 69.0513 0 59.4429 0C49.8345 0 42.0453 6.95892 42.0453 15.5432C42.0453 24.1275 49.8345 31.0864 59.4429 31.0864Z" fill="#26313D"/>
<path d="M125.353 31.0864C134.961 31.0864 142.75 24.1275 142.75 15.5432C142.75 6.95892 134.961 0 125.353 0C115.744 0 107.955 6.95892 107.955 15.5432C107.955 24.1275 115.744 31.0864 125.353 31.0864Z" fill="#26313D"/>
<path d="M190.202 31.0864C199.811 31.0864 207.6 24.1275 207.6 15.5432C207.6 6.95892 199.811 0 190.202 0C180.594 0 172.805 6.95892 172.805 15.5432C172.805 24.1275 180.594 31.0864 190.202 31.0864Z" fill="#26313D"/>
<path d="M252.362 31.0864C261.97 31.0864 269.759 24.1275 269.759 15.5432C269.759 6.95892 261.97 0 252.362 0C242.753 0 234.964 6.95892 234.964 15.5432C234.964 24.1275 242.753 31.0864 252.362 31.0864Z" fill="#26313D"/>
<path d="M309.092 31.0864C318.7 31.0864 326.49 24.1275 326.49 15.5432C326.49 6.95892 318.7 0 309.092 0C299.484 0 291.694 6.95892 291.694 15.5432C291.694 24.1275 299.484 31.0864 309.092 31.0864Z" fill="#26313D"/>
<path d="M23.5099 139.623C36.3418 139.623 46.7442 130.087 46.7442 118.323C46.7442 106.559 36.3418 97.023 23.5099 97.023C10.678 97.023 0.275635 106.559 0.275635 118.323C0.275635 130.087 10.678 139.623 23.5099 139.623Z" fill="#26313D"/>
<path d="M111.523 139.623C124.355 139.623 134.758 130.087 134.758 118.323C134.758 106.559 124.355 97.023 111.523 97.023C98.6913 97.023 88.289 106.559 88.289 118.323C88.289 130.087 98.6913 139.623 111.523 139.623Z" fill="#26313D"/>
<path d="M198.125 139.623C210.957 139.623 221.359 130.087 221.359 118.323C221.359 106.559 210.957 97.023 198.125 97.023C185.293 97.023 174.891 106.559 174.891 118.323C174.891 130.087 185.293 139.623 198.125 139.623Z" fill="#26313D"/>
<path d="M281.131 139.623C293.963 139.623 304.365 130.087 304.365 118.323C304.365 106.559 293.963 97.023 281.131 97.023C268.299 97.023 257.896 106.559 257.896 118.323C257.896 130.087 268.299 139.623 281.131 139.623Z" fill="#26313D"/>
<path d="M356.888 139.623C369.72 139.623 380.122 130.087 380.122 118.323C380.122 106.559 369.72 97.023 356.888 97.023C344.056 97.023 333.654 106.559 333.654 118.323C333.654 130.087 344.056 139.623 356.888 139.623Z" fill="#053A75"/>
<path d="M23.5099 205.316C36.3418 205.316 46.7442 195.78 46.7442 184.016C46.7442 172.252 36.3418 162.716 23.5099 162.716C10.678 162.716 0.275635 172.252 0.275635 184.016C0.275635 195.78 10.678 205.316 23.5099 205.316Z" fill="#26313D"/>
<path d="M111.523 205.316C124.355 205.316 134.758 195.78 134.758 184.016C134.758 172.252 124.355 162.716 111.523 162.716C98.6913 162.716 88.289 172.252 88.289 184.016C88.289 195.78 98.6913 205.316 111.523 205.316Z" fill="#26313D"/>
<path d="M198.125 205.316C210.957 205.316 221.359 195.78 221.359 184.016C221.359 172.252 210.957 162.716 198.125 162.716C185.293 162.716 174.891 172.252 174.891 184.016C174.891 195.78 185.293 205.316 198.125 205.316Z" fill="#26313D"/>
<path d="M281.131 205.316C293.963 205.316 304.365 195.78 304.365 184.016C304.365 172.252 293.963 162.716 281.131 162.716C268.299 162.716 257.896 172.252 257.896 184.016C257.896 195.78 268.299 205.316 281.131 205.316Z" fill="#26313D"/>
<path d="M356.888 205.316C369.72 205.316 380.122 195.78 380.122 184.016C380.122 172.252 369.72 162.716 356.888 162.716C344.056 162.716 333.654 172.252 333.654 184.016C333.654 195.78 344.056 205.316 356.888 205.316Z" fill="#26313D"/>
<path d="M41.0409 261.682C52.5268 261.682 61.8379 253.147 61.8379 242.619C61.8379 232.09 52.5268 223.555 41.0409 223.555C29.555 223.555 20.2438 232.09 20.2438 242.619C20.2438 253.147 29.555 261.682 41.0409 261.682Z" fill="#26313D"/>
<path d="M119.79 261.682C131.276 261.682 140.587 253.147 140.587 242.619C140.587 232.09 131.276 223.555 119.79 223.555C108.304 223.555 98.993 232.09 98.993 242.619C98.993 253.147 108.304 261.682 119.79 261.682Z" fill="#26313D"/>
<path d="M197.289 261.682C208.775 261.682 218.086 253.147 218.086 242.619C218.086 232.09 208.775 223.555 197.289 223.555C185.803 223.555 176.492 232.09 176.492 242.619C176.492 253.147 185.803 261.682 197.289 261.682Z" fill="#26313D"/>
<path d="M271.571 261.682C283.057 261.682 292.368 253.147 292.368 242.619C292.368 232.09 283.057 223.555 271.571 223.555C260.086 223.555 250.774 232.09 250.774 242.619C250.774 253.147 260.086 261.682 271.571 261.682Z" fill="#26313D"/>
<path d="M339.364 261.682C350.85 261.682 360.161 253.147 360.161 242.619C360.161 232.09 350.85 223.555 339.364 223.555C327.878 223.555 318.567 232.09 318.567 242.619C318.567 253.147 327.878 261.682 339.364 261.682Z" fill="#26313D"/>
<path d="M65.378 311C74.9864 311 82.7756 304.041 82.7756 295.457C82.7756 286.872 74.9864 279.914 65.378 279.914C55.7696 279.914 47.9804 286.872 47.9804 295.457C47.9804 304.041 55.7696 311 65.378 311Z" fill="#26313D"/>
<path d="M131.281 311C140.889 311 148.679 304.041 148.679 295.457C148.679 286.872 140.889 279.914 131.281 279.914C121.673 279.914 113.883 286.872 113.883 295.457C113.883 304.041 121.673 311 131.281 311Z" fill="#26313D"/>
<path d="M196.13 311C205.739 311 213.528 304.041 213.528 295.457C213.528 286.872 205.739 279.914 196.13 279.914C186.522 279.914 178.733 286.872 178.733 295.457C178.733 304.041 186.522 311 196.13 311Z" fill="#26313D"/>
<path d="M258.29 311C267.898 311 275.687 304.041 275.687 295.457C275.687 286.872 267.898 279.914 258.29 279.914C248.681 279.914 240.892 286.872 240.892 295.457C240.892 304.041 248.681 311 258.29 311Z" fill="#26313D"/>
<path d="M315.027 311C324.635 311 332.424 304.041 332.424 295.457C332.424 286.872 324.635 279.914 315.027 279.914C305.418 279.914 297.629 286.872 297.629 295.457C297.629 304.041 305.418 311 315.027 311Z" fill="#26313D"/>
</g>
</svg>
